:SAMPLES-PER-SECOND 30
:FULLY-SPECIFIED
:DEGREES
202
root  4.866155489 39.70088809 5.466866681 -0.03698730469 -49.75900269 -4.096984863
lowerback  10.25699997 2.300610065 -4.63176012
upperback  3.174319983 2.367640018 -3.63944006
thorax  -2.471519947 1.142799973 -1.465770006
lowerneck  -4.606890202 5.882160187 -7.516670227
upperneck  11.64659977 7.740399837 7.201980114
head  3.628789902 3.853840113 3.727129936
lclavicle  0 -9.442270133e-015 7.951389973e-016
lhumerus  -14.64840031 -16.04319954 72.19860077
lradius  2.812497881e-031 -2.13511117e-031 142.7960052
lwrist  -1.412450015e-030 1.765562519e-031 12.84689999
lhand  -1.496451383e-031 -27.76390076 20.11240005
lfingers  90 7.125020027 -90
lthumb  89.89689403 5.08795885 91.16245106
rclavicle  0 -9.442270133e-015 7.951389973e-016
rhumerus  -18.72380066 9.823710442 -75.00589752
rradius  -2.236642533e-031 2.732448392e-031 129.302002
rwrist  3.531125038e-031 -3.531125038e-031 -4.48195982
rhand  -7.920061211e-032 -33.2840004 9.303460121
rfingers  -90 -7.125020027 -90
rthumb  -92.93752616 -24.25625642 -97.11982154
rfemur  -6.386240005 17.30240059 14.85550022
rtibia  -0 0 56.0646019
rfoot  -0 -4.43941021 -7.182050228
rtoes  5.373923086 19.29304026 -105.8922705
lfemur  -25.02499962 5.522669792 -4.72397995
ltibia  -0 0 57.14929962
lfoot  5.005026123e-032 -7.192269802 0.7473549843
ltoes  -4.250644065 -19.5611806 -102.515957
203
root  4.828222155 39.46000047 5.350266479 -0.01397705078 -50.3789978 -4.192993164
lowerback  9.949099541 1.877329946 -4.297410011
upperback  3.257260084 1.875079989 -3.510210037
thorax  -2.205499887 0.896073997 -1.443459988
lowerneck  -4.898920059 6.071800232 -7.281909943
upperneck  11.8998003 8.006110191 7.017479897
head  3.752239943 3.985189915 3.659909964
lclavicle  0 -9.442270133e-015 7.951389973e-016
lhumerus  -15.75619984 -15.77830029 73.05390167
lradius  2.776444863e-031 -2.18178779e-031 141.8390045
lwrist  -7.062250077e-031 -0 13.39869976
lhand  -1.496451383e-031 -27.76390076 20.11240005
lfingers  90 7.125020027 -90
lthumb  89.89689403 5.08795885 91.16245106
rclavicle  0 -9.442270133e-015 7.951389973e-016
rhumerus  -18.79229927 10.11030006 -75.69560242
rradius  -2.243836027e-031 2.726544318e-031 129.4530029
rwrist  7.062250077e-031 -1.765562519e-031 -4.307419777
rhand  -7.920061211e-032 -33.2840004 9.303460121
rfingers  -90 -7.125020027 -90
rthumb  -92.93752616 -24.25625642 -97.11982154
rfemur  -5.007190228 17.27960014 15.41399956
rtibia  -0 0 54.89899826
rfoot  -0 -11.60919952 -10.35109997
rtoes  5.373923086 19.29304026 -105.8922705
lfemur  -24.57519913 5.384540081 -4.573810101
ltibia  -0 0 57.1495018
lfoot  5.58783966e-032 -9.108240128 1.505970001
ltoes  -4.250644065 -19.5611806 -102.515957
204
root  4.780422045 39.19222073 5.256022055 0.2520141602 -50.9750061 -4.531005859
lowerback  9.467989922 1.532789946 -3.619469881
upperback  3.36225009 1.52572 -3.446449995
thorax  -1.814550042 0.7213950157 -1.698699951
lowerneck  -5.239210129 6.174570084 -6.874750137
upperneck  12.15810013 8.139900208 6.842820168
head  3.902479887 4.059939861 3.568350077
lclavicle  0 -9.442270133e-015 7.951389973e-016
lhumerus  -16.84959984 -15.99790001 74.04979706
lradius  2.739967301e-031 -2.227425246e-031 140.8910065
lwrist  -7.062250077e-031 -0 13.39039993
lhand  -1.496451383e-031 -27.76390076 20.11240005
lfingers  90 7.125020027 -90
lthumb  89.89689403 5.08795885 91.16245106
rclavicle  0 -9.442270133e-015 7.951389973e-016
rhumerus  -18.9734993 10.23840046 -76.46279907
rradius  -2.249968976e-031 2.721485558e-031 129.5820007
rwrist  7.062250077e-031 -1.765562519e-031 -4.092889786
rhand  -7.920061211e-032 -33.2840004 9.303460121
rfingers  -90 -7.125020027 -90
rthumb  -92.93752616 -24.25625642 -97.11982154
rfemur  -3.443690062 16.94319916 15.96759987
rtibia  -0 0 53.64770126
rfoot  -0 -14.79259968 -11.76259995
rtoes  5.373923086 19.29304026 -105.8922705
lfemur  -24.08979988 4.961339951 -4.142389774
ltibia  -0 0 56.97259903
lfoot  6.747331283e-032 -11.11089993 2.467570066
ltoes  -4.250644065 -19.5611806 -102.515957
205
root  4.702866547 39.07222297 5.147222083 0.7379760742 -51.41299438 -5.047973633
lowerback  9.27464962 1.237159967 -3.188129902
upperback  3.296760082 1.196439981 -3.154119968
thorax  -1.775210023 0.5612789989 -1.596920013
lowerneck  -5.444059849 6.245979786 -6.746490002
upperneck  12.36030006 8.244199753 6.719120026
head  4.002039909 4.109670162 3.528559923
lclavicle  0 -9.442270133e-015 7.951389973e-016
lhumerus  -17.99620056 -16.07449913 75.41030121
lradius  2.701231538e-031 -2.274245416e-031 139.9049988
lwrist  -1.412450015e-030 1.765562519e-031 13.64649963
lhand  -1.496451383e-031 -27.76390076 20.11240005
lfingers  90 7.125020027 -90
lthumb  89.89689403 5.08795885 91.16245106
rclavicle  0 -9.442270133e-015 7.951389973e-016
rhumerus  -19.3355999 10.51259995 -77.03910065
rradius  -2.255047176e-031 2.717279204e-031 129.6889954
rwrist  3.531125038e-031 -0 -3.837529898
rhand  -7.920061211e-032 -33.2840004 9.303460121
rfingers  -90 -7.125020027 -90
rthumb  -92.93752616 -24.25625642 -97.11982154
rfemur  -2.431869984 16.1114006 16.66189957
rtibia  -0 0 52.41659927
rfoot  -0 -14.35719967 -13.63189983
rtoes  5.373923086 19.29304026 -105.8922705
lfemur  -23.50919914 4.434539795 -3.515899897
ltibia  -0 0 56.48059845
lfoot  6.790690756e-032 -12.8409996 2.689949989
ltoes  -4.250644065 -19.5611806 -102.515957
